<svg xmlns="http://www.w3.org/2000/svg" viewBox="0 0 64 64" width="64" height="64">
  <rect width="64" height="64" rx="14" fill="#0A2540"/>
  <circle cx="32" cy="26" r="11" fill="#F4A933"/>
  <g stroke="#F4A933" stroke-width="3.4" stroke-linecap="round">
    <path d="M32 6v5"/>
    <path d="M12 26h5"/>
    <path d="M47 26h5"/>
    <path d="M17.6 11.6l3.5 3.5"/>
    <path d="M46.4 11.6l-3.5 3.5"/>
  </g>
  <path d="M5 43c5-4.2 9.3-4.2 13.5 0s9.7 4.2 13.5 0 8.5-4.2 13.5 0 0 0 5.5 0v12c-5.5 0-5.5 0-10.5-2-2-3-9-3-12 .3-3 3.3-10 3.3-13.5-.3-3.5-3.6-7.8-3.6-13.5 0z" fill="#1668C7"/>
  <path d="M5 47c5-3.6 9.3-3.6 13.5 0s9.7 3.6 13.5 0 8.5-3.6 13.5 0 5.5 1.6 5.5 1.6" fill="none" stroke="#3E8EE0" stroke-width="3" stroke-linecap="round" opacity=".55"/>
</svg>
